<svg xmlns="http://www.w3.org/2000/svg" viewBox="0 0 192 192" width="192" height="192">
  <defs>
    <linearGradient id="g" x1="0" y1="0" x2="0" y2="1">
      <stop offset="0%"   stop-color="#F5C842"/>
      <stop offset="50%"  stop-color="#D4890A"/>
      <stop offset="100%" stop-color="#8B5E04"/>
    </linearGradient>
  </defs>
  <rect width="192" height="192" rx="42" fill="#0E1A07"/>
  <!-- subtle pixel grid -->
  <g stroke="rgba(212,137,10,0.07)" stroke-width="0.5">
    <line x1="0" y1="19.2" x2="192" y2="19.2"/>
    <line x1="0" y1="38.4" x2="192" y2="38.4"/>
    <line x1="0" y1="57.6" x2="192" y2="57.6"/>
    <line x1="0" y1="76.8" x2="192" y2="76.8"/>
    <line x1="0" y1="96"   x2="192" y2="96"/>
    <line x1="0" y1="115.2" x2="192" y2="115.2"/>
    <line x1="0" y1="134.4" x2="192" y2="134.4"/>
    <line x1="0" y1="153.6" x2="192" y2="153.6"/>
    <line x1="0" y1="172.8" x2="192" y2="172.8"/>
    <line x1="19.2" y1="0" x2="19.2" y2="192"/>
    <line x1="38.4" y1="0" x2="38.4" y2="192"/>
    <line x1="57.6" y1="0" x2="57.6" y2="192"/>
    <line x1="76.8" y1="0" x2="76.8" y2="192"/>
    <line x1="96"   y1="0" x2="96"   y2="192"/>
    <line x1="115.2" y1="0" x2="115.2" y2="192"/>
    <line x1="134.4" y1="0" x2="134.4" y2="192"/>
    <line x1="153.6" y1="0" x2="153.6" y2="192"/>
    <line x1="172.8" y1="0" x2="172.8" y2="192"/>
  </g>
  <!-- pixel wheat — centered, px=18, gap=4 -->
  <!-- col centers: 78, 100, 122   row starts: y=12 step=22 -->
  <!-- tip -->
  <rect x="87" y="12"  width="18" height="18" rx="3" fill="url(#g)" opacity=".8"/>
  <!-- pair 1 -->
  <rect x="65" y="34"  width="18" height="18" rx="3" fill="url(#g)"/>
  <rect x="87" y="34"  width="18" height="18" rx="3" fill="url(#g)"/>
  <rect x="109" y="34" width="18" height="18" rx="3" fill="url(#g)"/>
  <!-- rachis -->
  <rect x="87" y="56"  width="18" height="18" rx="3" fill="#D4890A" opacity=".4"/>
  <!-- pair 2 widest -->
  <rect x="43"  y="78" width="18" height="18" rx="3" fill="url(#g)"/>
  <rect x="65"  y="78" width="18" height="18" rx="3" fill="url(#g)"/>
  <rect x="87"  y="78" width="18" height="18" rx="3" fill="url(#g)"/>
  <rect x="109" y="78" width="18" height="18" rx="3" fill="url(#g)"/>
  <rect x="131" y="78" width="18" height="18" rx="3" fill="url(#g)"/>
  <!-- rachis -->
  <rect x="87"  y="100" width="18" height="18" rx="3" fill="#D4890A" opacity=".4"/>
  <!-- pair 3 -->
  <rect x="65"  y="122" width="18" height="18" rx="3" fill="url(#g)"/>
  <rect x="87"  y="122" width="18" height="18" rx="3" fill="url(#g)"/>
  <rect x="109" y="122" width="18" height="18" rx="3" fill="url(#g)"/>
  <!-- stem -->
  <rect x="87"  y="144" width="18" height="18" rx="3" fill="#6B3E06" opacity=".65"/>
  <!-- base -->
  <rect x="87"  y="166" width="18" height="18" rx="3" fill="#4A2A04" opacity=".45"/>
  <!-- glints -->
  <circle cx="96" cy="21"  r="3"   fill="#FFF8D0" opacity=".55"/>
  <circle cx="96" cy="87"  r="3.5" fill="#FFF8D0" opacity=".35"/>
</svg>
